<svg xmlns="http://www.w3.org/2000/svg" xmlns:xlink="http://www.w3.org/1999/xlink" width="500" height="144" viewBox="0 0 500 144">
  <defs>
    <clipPath id="clip-logo_peka_500">
      <rect width="500" height="144"/>
    </clipPath>
  </defs>
  <g id="logo_peka_500" clip-path="url(#clip-logo_peka_500)">
    <g id="PEKA_Logo_black" transform="translate(0 0.457)">
      <path id="Path_2" data-name="Path 2" d="M35.6,5.37c-7.354,0-13.567,5.758-13.567,13.054v99.419H42.837v-30.1H88.67c7.582,0,13.8-6.9,13.8-14.138V5.37Zm46,55.182a7.7,7.7,0,0,1-7.639,7.582H42.381V32.391a7.627,7.627,0,0,1,7.639-7.582H81.6Z" transform="translate(103.554 25.242)" fill="#435262"/>
      <path id="Path_3" data-name="Path 3" d="M57.87,0V112.986H78.62v-24.4l11-10.945,24.171,35.344h22.574l-33.8-48.17,34.261-34.2H112.767l-34.2,32.779V13.111C78.563,5.815,72.692,0,65,0Z" transform="translate(272.024 0)" fill="#435262"/>
      <path id="Path_4" data-name="Path 4" d="M84.4,5.37V20.192h37.738a7.413,7.413,0,0,1,7.639,7.411v9.007H86.513c-7.183,0-12.883,5.929-12.883,13.51l.057,24.627c0,7.24,6.1,13.054,13.624,13.054h66.583V18.481A13.337,13.337,0,0,0,140.27,5.37Zm45.89,67.666H98.656a7.827,7.827,0,0,1-7.582-7.753v-6.9a7.676,7.676,0,0,1,7.639-7.639h23.943a7.532,7.532,0,0,1,7.639,7.639V73.036Z" transform="translate(346.105 25.242)" fill="#435262"/>
      <path id="Path_5" data-name="Path 5" d="M120.677,18.424c0-7.3-6.214-13.054-13.624-13.054H53.637c-7.3,0-13.567,5.758-13.567,13.054V74.689c0,7.183,6.214,13.054,13.567,13.054H117.2V73.036H68.687a7.447,7.447,0,0,1-7.582-7.468V56.276h46.289a13.541,13.541,0,0,0,13.282-13.567ZM61.105,27.887a7.851,7.851,0,0,1,7.7-7.7H92.687A7.75,7.75,0,0,1,100.325,28v6.9a7.664,7.664,0,0,1-7.639,7.582H61.048V27.887Z" transform="translate(188.352 25.242)" fill="#435262"/>
      <path id="Path_6" data-name="Path 6" d="M62.616,5.48H40.954V50.914A17.553,17.553,0,0,1,23.4,68.415H4.47v19.5H62.616Z" transform="translate(21.012 25.759)" fill="#435262"/>
      <path id="Path_7" data-name="Path 7" d="M55.467,50.914V5.48H10.888C4.9,5.48,0,10.326,0,15.684v72.17H19.325V62.2H44.066a11.338,11.338,0,0,0,11.4-11.287" transform="translate(0 25.759)" fill="#435262"/>
    </g>
  </g>
</svg>
